<?xml version="1.0" standalone="no"?>
<!DOCTYPE svg PUBLIC "-//W3C//DTD SVG 20010904//EN"
 "http://www.w3.org/TR/2001/REC-SVG-20010904/DTD/svg10.dtd">
<svg version="1.0" xmlns="http://www.w3.org/2000/svg"
 width="440.000000pt" height="420.000000pt" viewBox="0 0 440.000000 420.000000"
 preserveAspectRatio="xMidYMid meet">

<g transform="translate(0.000000,420.000000) scale(0.100000,-0.100000)"
fill="#000000" stroke="none">
<path d="M3200 3679 c0 -23 -7 -69 -16 -103 -55 -215 -242 -372 -476 -401
l-48 -6 0 -119 0 -119 48 -6 c234 -29 421 -186 476 -401 9 -34 16 -80 16 -103
l0 -41 123 0 123 0 12 83 c35 243 229 428 485 462 l47 6 0 119 0 119 -47 6
c-256 34 -450 219 -485 463 l-12 82 -123 0 -123 0 0 -41z"/>
<path d="M1050 3540 c-249 -44 -462 -238 -532 -485 l-23 -80 0 -925 0 -925 23
-80 c62 -219 222 -385 447 -462 l80 -28 1115 0 1115 0 80 28 c224 77 387 245
447 462 20 76 22 105 26 543 l4 462 -171 0 -171 0 0 -450 c0 -435 -1 -451 -21
-507 -29 -76 -93 -143 -172 -179 l-62 -29 -1075 0 -1075 0 -60 28 c-73 34
-128 85 -163 152 l-27 50 0 935 0 935 27 50 c35 67 90 118 163 152 l60 28 623
3 622 3 0 164 0 165 -617 -1 c-340 -1 -638 -5 -663 -9z"/>
</g>
</svg>
